Coordinates
version=1
nRows=26
nColumns=22
inDegrees=yes

Units are S.I. units (second, meters, Newtons, ...)
If the header above contains a line with 'inDegrees', this indicates whether rotational values are in degrees (yes) or radians (no).

endheader
time	pelvis_tilt	pelvis_list	pelvis_rotation	pelvis_tx	pelvis_ty	pelvis_tz	hip_flexion_r	hip_adduction_r	hip_rotation_r	knee_angle_r	ankle_angle_r	subtalar_angle_r	hip_flexion_l	hip_adduction_l	hip_rotation_l	knee_angle_l	ankle_angle_l	subtalar_angle_l	lumbar_extension	lumbar_bending	lumbar_rotation
      2.19000000	     -1.91680159	     -1.95025623	    139.97534650	     -0.37317505	      1.01118312	      0.58913025	     25.17076994	     -2.13401081	     -8.14464437	    -42.40449696	      9.00378546	     -0.35025843	      2.82831043	      2.58054496	     -8.11388685	    -14.42600799	     12.55257615	      0.37783014	    -16.32791917	     -1.78551894	     -0.77718188
      2.20000000	     -1.90261063	     -1.86929942	    139.39832486	     -0.37716196	      1.01104661	      0.58521955	     25.28178375	     -2.14584324	     -9.44088547	    -40.23031999	      9.02380626	     -0.30572604	      2.21279276	      2.53515331	     -8.64307988	    -14.08062438	     12.80936986	      0.38835245	    -16.37828664	     -1.70793073	     -0.86018346
      2.21000000	     -1.88799726	     -1.78926249	    138.82159730	     -0.38109980	      1.01083621	      0.58117168	     25.35527983	     -2.12542925	    -10.80240163	    -38.02940839	      8.97700703	     -0.23729668	      1.60282890	      2.49050411	     -9.17472837	    -13.75320982	     13.06602108	      0.40942545	    -16.42422933	     -1.63575679	     -0.92632693
      2.22000000	     -1.86412008	     -1.71680610	    138.23873209	     -0.38500581	      1.01052053	      0.57697930	     25.41191833	     -2.06297521	    -12.20508818	    -35.82378984	      8.85086602	     -0.12233801	      1.00803004	      2.44763327	     -9.70787637	    -13.44297435	     13.34712077	      0.43719343	    -16.44731103	     -1.56392723	     -0.97114804
      2.23000000	     -1.84155162	     -1.64639541	    137.65071626	     -0.38884236	      1.01011995	      0.57263559	     25.44256982	     -1.95109145	    -13.61602321	    -33.62225607	      8.65031536	      0.04625404	      0.42324464	      2.40498961	    -10.25583217	    -13.16089671	     13.62949236	      0.47616095	    -16.46952809	     -1.50486546	     -0.99254870
      2.24000000	     -1.80161849	     -1.58947519	    137.05865140	     -0.39260645	      1.00959000	      0.56814796	     25.47937033	     -1.78221976	    -15.00235060	    -31.44577714	      8.36118895	      0.26170776	     -0.12324352	      2.35684482	    -10.81250763	    -12.91612316	     13.94576098	      0.51883013	    -16.46460443	     -1.45148966	     -0.99029511
      2.25000000	     -1.77536228	     -1.54005139	    136.45847626	     -0.39633025	      1.00897772	      0.56353275	     25.49913508	     -1.57612470	    -16.32776768	    -29.31383271	      8.00241406	      0.51139984	     -0.66354028	      2.32451333	    -11.38475396	    -12.70495813	     14.25713242	      0.57954184	    -16.46056415	     -1.41377020	     -0.97373985
      2.26000000	     -1.74421394	     -1.50764414	    135.86462258	     -0.39998401	      1.00824574	      0.55881809	     25.53009239	     -1.33308119	    -17.56630447	    -27.24198631	      7.58062882	      0.76384058	     -1.16709981	      2.29843638	    -11.95672181	    -12.53616341	     14.59228103	      0.65078234	    -16.44274602	     -1.38983805	     -0.95304141
      2.27000000	     -1.70855336	     -1.49354219	    135.28706614	     -0.40359746	      1.00738972	      0.55403719	     25.57855570	     -1.06979885	    -18.70850565	    -25.25180572	      7.12723831	      0.98852858	     -1.62673892	      2.27986553	    -12.51463494	    -12.42175268	     14.95305808	      0.72580653	    -16.40927062	     -1.37144091	     -0.93532448
      2.28000000	     -1.64990654	     -1.52478246	    134.74426822	     -0.40718188	      1.00636070	      0.54924286	     25.68465165	     -0.80745152	    -19.72797124	    -23.35985263	      6.66439025	      1.15570105	     -1.99697613	      2.27297697	    -13.03874420	    -12.37697633	     15.33724726	      0.77332272	    -16.32442882	     -1.35692849	     -0.96092518
      2.29000000	     -1.61717433	     -1.54408558	    134.24403244	     -0.41078990	      1.00529703	      0.54443787	     25.76398191	     -0.56508415	    -20.67294495	    -21.57959903	      6.25754119	      1.29110419	     -2.36970227	      2.27347859	    -13.51952217	    -12.38305099	     15.72640114	      0.84291743	    -16.27637658	     -1.33711005	     -1.00190518
      2.30000000	     -1.60136302	     -1.56138236	    133.79655357	     -0.41445818	      1.00418569	      0.53964120	     25.83675714	     -0.36152741	    -21.54629092	    -19.93410360	      5.93665190	      1.37842895	     -2.73290549	      2.28345763	    -13.94398870	    -12.43351890	     16.12010860	      0.93055858	    -16.24626418	     -1.30533845	     -1.08546497
      2.31000000	     -1.57959768	     -1.61830304	    133.41292913	     -0.41817681	      1.00296412	      0.53490244	     25.96877583	     -0.22905111	    -22.36647350	    -18.45830929	      5.67702187	      1.41864780	     -3.01342736	      2.30920428	    -14.32326035	    -12.56855353	     16.50148667	      0.97188915	    -16.18618234	     -1.27652367	     -1.21317081
      2.32000000	     -1.60858814	     -1.59856870	    133.09428013	     -0.42203122	      1.00187124	      0.53012376	     25.98156016	     -0.11862040	    -23.11174672	    -17.08985748	      5.55506153	      1.35390834	     -3.39933009	      2.32068359	    -14.60468091	    -12.69492881	     16.88890675	      1.11914367	    -16.22764745	     -1.19790244	     -1.41569823
      2.33000000	     -1.60379411	     -1.64665664	    132.83326709	     -0.42595787	      1.00062100	      0.52537801	     26.10007038	     -0.08765135	    -23.78800871	    -15.91867970	      5.50991224	      1.29487917	     -3.64877868	      2.34040761	    -14.85693124	    -12.93409095	     17.28797877	      1.14811296	    -16.18393000	     -1.12088239	     -1.65475603
      2.34000000	     -1.65727141	     -1.61315075	    132.61873203	     -0.43004225	      0.99956260	      0.52051925	     26.09289358	     -0.08538768	    -24.42376267	    -14.88141174	      5.50142071	      1.03896921	     -4.03628225	      2.35287174	    -15.01660704	    -13.12712675	     17.62136110	      1.29731971	    -16.24424075	     -1.00564602	     -1.93426212
      2.35000000	     -1.68903532	     -1.60637078	    132.43317787	     -0.43423511	      0.99844360	      0.51556453	     26.13575301	     -0.12973409	    -24.98733207	    -14.04383984	      5.56001907	      0.83368752	     -4.36540500	      2.35827479	    -15.15775242	    -13.37742028	     17.96085691	      1.37632146	    -16.24851737	     -0.87605575	     -2.22311181
      2.36000000	     -1.76956582	     -1.55678587	    132.26367372	     -0.43852888	      0.99745884	      0.51043660	     26.10292732	     -0.20748754	    -25.46333987	    -13.37967666	      5.63972546	      0.51070117	     -4.77370371	      2.36691904	    -15.27128957	    -13.62887346	     18.24396754	      1.51340490	    -16.31336996	     -0.74418985	     -2.52337423
      2.37000000	     -1.87050326	     -1.49307447	    132.09181660	     -0.44291002	      0.99653472	      0.50509521	     26.04421323	     -0.30905283	    -25.83747231	    -12.90929451	      5.74909625	      0.17261248	     -5.21683160	      2.37697137	    -15.37703568	    -13.88907319	     18.48869914	      1.67347563	    -16.38562459	     -0.61549112	     -2.80624542
      2.38000000	     -1.99175439	     -1.40970010	    131.91255786	     -0.44736763	      0.99568828	      0.49951240	     25.94872756	     -0.42046284	    -26.09621359	    -12.62680002	      5.85635132	     -0.16235244	     -5.70387910	      2.38531386	    -15.47538784	    -14.14956375	     18.68011967	      1.87616973	    -16.46757194	     -0.48795153	     -3.07221623
      2.39000000	     -2.11682828	     -1.32203893	    131.73032912	     -0.45189846	      0.99487794	      0.49367991	     25.83893052	     -0.53806648	    -26.24777782	    -12.53386589	      5.98530506	     -0.42121050	     -6.20420165	      2.38628930	    -15.56324664	    -14.42391340	     18.84178890	      2.09332639	    -16.53259461	     -0.36243551	     -3.30108163
      2.40000000	     -2.25392948	     -1.20332571	    131.54346481	     -0.45648274	      0.99416821	      0.48758830	     25.67332443	     -0.63667672	    -26.26377353	    -12.59930233	      6.04108705	     -0.65103438	     -6.74625178	      2.36669636	    -15.64986459	    -14.70807923	     18.93713488	      2.39579488	    -16.61204991	     -0.22406139	     -3.52459092
      2.41000000	     -2.37942936	     -1.07506831	    131.35780302	     -0.46110468	      0.99349684	      0.48123477	     25.48964100	     -0.71454609	    -26.17402859	    -12.82813775	      6.06439052	     -0.81371899	     -7.28366773	      2.31951138	    -15.71927627	    -15.02639384	     18.99670670	      2.73380514	    -16.66771731	     -0.07647653	     -3.71360070
      2.42000000	     -2.48901166	     -0.94119448	    131.16685156	     -0.46578102	      0.99285048	      0.47461746	     25.29806688	     -0.77170334	    -26.00943723	    -13.21986594	      6.06352480	     -0.94652908	     -7.81610882	      2.24890785	    -15.77761478	    -15.36842929	     19.04587844	      3.06117083	    -16.69064529	      0.08671112	     -3.86788491
      2.43000000	     -2.57465982	     -0.76708385	    130.99098504	     -0.47047061	      0.99231471	      0.46775343	     25.04529445	     -0.76883996	    -25.80988505	    -13.68781393	      5.87517225	     -1.12692466	     -8.34218762	      2.11232191	    -15.81382949	    -15.77614198	     19.00903039	      3.50647446	    -16.71431699	      0.29619530	     -4.00265696
      2.44000000	     -2.62284829	     -0.58437404	    130.82724634	     -0.47518640	      0.99181003	      0.46065564	     24.78897806	     -0.72972693	    -25.64403059	    -14.25845132	      5.59985211	     -1.37069076	     -8.82367642	      1.92468152	    -15.81192201	    -16.25595560	     18.93836509	      3.96119668	    -16.69716388	      0.54118063	     -4.10819038
